# xmcd
# Track frame offsets:
# 150
# 17407
# 30837
# 46175
# 61867
# 79187
# 94727
# 114537
# 127552
# 142475
# 160182
# 178975
# 198195
#
# Disc length: 2813 seconds
# Revision: 0
# Processed by: cddbd v1.5PL3 Copyright (c) Steve Scherf et al.
# Submitted via: VisiTrax 2.9.9.202 - For more info visit www.synapsa.com
#
DISCID=9e0afb0d
DTITLE=Suzy Bogguss - What`s The Story all About Live
DYEAR=1994
DGENRE=
TTITLE0=Someday Soon
TTITLE1=Other Side Of The Hill
TTITLE2=Drive South
TTITLE3=Cross My Broken Hesrt
TTITLE4=Save Yourself
TTITLE5=Heartache
TTITLE6=Letting Go
TTITLE7=I´m Home on the Range
TTITLE8=Just Like The Weather
TTITLE9=Outbound Plane
TTITLE10=Hey Cinderella
TTITLE11=Aces
TTITLE12=I Want to Be A Cowboys Sweetheart
EXTD=
EXTT0=
EXTT1=
EXTT2=
EXTT3=
EXTT4=
EXTT5=
EXTT6=
EXTT7=
EXTT8=
EXTT9=
EXTT10=
EXTT11=
EXTT12=
PLAYORDER=
